<svg width="124" height="19" viewBox="0 0 124 19" fill="none" xmlns="http://www.w3.org/2000/svg">
<rect y="7.79869" width="112.287" height="6.12475" fill="#FFF337"/>
<path d="M97.1619 18.443H91.9297L100.79 0.583801H107.417L110.347 18.443H105.115L103.371 5.50205H103.231L97.1619 18.443ZM97.3712 11.397H107.208L106.58 15.0246H96.7433L97.3712 11.397Z" fill="black"/>
<path d="M76.3711 18.443L79.336 0.583801H87.0447C88.3702 0.583801 89.4893 0.825063 90.4021 1.30759C91.3148 1.79011 91.9717 2.48483 92.3728 3.39174C92.774 4.29865 92.8699 5.38578 92.6606 6.65313C92.4513 7.93211 91.9891 9.01052 91.2741 9.88836C90.5648 10.7604 89.6608 11.4231 88.5621 11.8766C87.4691 12.3242 86.2425 12.5481 84.8821 12.5481H80.2778L80.9057 8.78088H84.5333C85.103 8.78088 85.603 8.71112 86.0332 8.57159C86.4634 8.42626 86.8122 8.19953 87.0796 7.89141C87.347 7.57748 87.5214 7.16472 87.6028 6.65313C87.6842 6.14154 87.6435 5.72587 87.4808 5.40613C87.318 5.08057 87.0476 4.84221 86.6698 4.69106C86.2919 4.5341 85.8239 4.45561 85.2658 4.45561H83.5566L81.2196 18.443H76.3711ZM88.1958 10.2459L91.3002 18.443H86.0332L83.0334 10.2459H88.1958Z" fill="black"/>
<path d="M77.5302 0.583801L74.5653 18.443H69.7168L72.6817 0.583801H77.5302Z" fill="black"/>
<path d="M69.8403 7.28099H64.9918C65.0267 6.86823 65.0035 6.49616 64.9221 6.16479C64.8407 5.83342 64.7012 5.54856 64.5035 5.3102C64.3058 5.06603 64.0471 4.88 63.7274 4.7521C63.4077 4.6242 63.0269 4.56026 62.585 4.56026C61.7363 4.56026 60.9776 4.77245 60.309 5.19684C59.6405 5.61541 59.0853 6.21711 58.6435 7.00194C58.2016 7.78095 57.8877 8.71112 57.7017 9.79243C57.5389 10.8389 57.5331 11.708 57.6842 12.3998C57.8412 13.0916 58.1464 13.609 58.5999 13.952C59.0591 14.295 59.655 14.4665 60.3875 14.4665C60.8759 14.4665 61.3235 14.4084 61.7304 14.2921C62.1432 14.1758 62.5095 14.0102 62.8292 13.7951C63.1548 13.5741 63.4309 13.3125 63.6576 13.0102C63.8902 12.7021 64.0675 12.362 64.1896 11.99H69.0729C68.8869 12.7457 68.5555 13.5189 68.0788 14.3095C67.6021 15.0944 66.9859 15.8182 66.2301 16.4809C65.4744 17.1378 64.5849 17.6698 63.5617 18.0767C62.5385 18.4837 61.3875 18.6871 60.1085 18.6871C58.4342 18.6871 56.9895 18.3209 55.7745 17.5884C54.5653 16.8559 53.6874 15.7862 53.141 14.3793C52.6003 12.9724 52.4927 11.2574 52.8183 9.23434C53.1439 7.28099 53.7863 5.64448 54.7455 4.32481C55.7047 3.00514 56.8703 2.01102 58.2423 1.34246C59.6143 0.673908 61.0735 0.33963 62.6199 0.33963C63.7884 0.33963 64.8349 0.493688 65.7592 0.801805C66.6894 1.10992 67.4713 1.56047 68.105 2.15345C68.7445 2.74062 69.2154 3.4644 69.5177 4.32481C69.82 5.18521 69.9275 6.1706 69.8403 7.28099Z" fill="black"/>
<path d="M47.6375 0.583801H52.4859L50.5849 12.0248C50.364 13.3852 49.8466 14.5624 49.0327 15.5566C48.2246 16.5449 47.1956 17.3093 45.9457 17.85C44.6958 18.3848 43.3064 18.6523 41.7774 18.6523C40.2368 18.6523 38.9346 18.3848 37.8707 17.85C36.8069 17.3093 36.0337 16.5449 35.5511 15.5566C35.0744 14.5624 34.9465 13.3852 35.1674 12.0248L37.0685 0.583801H41.9169L40.0857 11.6063C39.9985 12.1585 40.0421 12.6498 40.2165 13.08C40.3909 13.5102 40.6728 13.8503 41.0624 14.1003C41.4519 14.3444 41.9228 14.4665 42.475 14.4665C43.0331 14.4665 43.5476 14.3444 44.0185 14.1003C44.4952 13.8503 44.8906 13.5102 45.2045 13.08C45.5184 12.6498 45.719 12.1585 45.8062 11.6063L47.6375 0.583801Z" fill="black"/>
<path d="M17.9531 18.443L20.918 0.583801H28.6268C29.9523 0.583801 31.0714 0.825063 31.9841 1.30759C32.8968 1.79011 33.5537 2.48483 33.9549 3.39174C34.356 4.29865 34.4519 5.38578 34.2426 6.65313C34.0334 7.93211 33.5712 9.01052 32.8561 9.88836C32.1469 10.7604 31.2429 11.4231 30.1441 11.8766C29.0512 12.3242 27.8245 12.5481 26.4641 12.5481H21.8598L22.4877 8.78088H26.1153C26.6851 8.78088 27.185 8.71112 27.6152 8.57159C28.0454 8.42626 28.3942 8.19953 28.6617 7.89141C28.9291 7.57748 29.1035 7.16472 29.1849 6.65313C29.2663 6.14154 29.2256 5.72587 29.0628 5.40613C28.9 5.08057 28.6297 4.84221 28.2518 4.69106C27.8739 4.5341 27.4059 4.45561 26.8478 4.45561H25.1387L22.8016 18.443H17.9531ZM29.7779 10.2459L32.8823 18.443H27.6152L24.6154 10.2459H29.7779Z" fill="black"/>
<path d="M2.04102 18.443L5.00592 0.583801H12.7495C14.1099 0.583801 15.2232 0.766927 16.0894 1.13318C16.9614 1.49943 17.5777 2.01684 17.9381 2.68539C18.3044 3.35395 18.4119 4.14168 18.2608 5.04859C18.1445 5.69971 17.8945 6.2956 17.5108 6.83626C17.1329 7.3711 16.6533 7.82456 16.072 8.19662C15.4964 8.56288 14.854 8.81576 14.1448 8.95529L14.1099 9.1297C14.8773 9.15295 15.5459 9.34479 16.1156 9.70523C16.6853 10.0599 17.1039 10.554 17.3713 11.1877C17.6387 11.8155 17.7027 12.5481 17.5631 13.3852C17.4004 14.3619 17.0021 15.231 16.3685 15.9926C15.7348 16.7541 14.9122 17.3529 13.9006 17.789C12.8891 18.225 11.738 18.443 10.4474 18.443H2.04102ZM7.55225 14.5712H9.81952C10.6218 14.5712 11.2526 14.4171 11.7118 14.109C12.1769 13.8009 12.4531 13.3503 12.5403 12.7573C12.61 12.3388 12.5751 11.9841 12.4356 11.6935C12.2961 11.4028 12.0606 11.1819 11.7293 11.0307C11.3979 10.8796 10.9822 10.804 10.4823 10.804H8.14523L7.55225 14.5712ZM8.66844 7.80421H10.6567C11.0752 7.80421 11.4589 7.73735 11.8078 7.60364C12.1566 7.46993 12.4443 7.27518 12.6711 7.01938C12.8978 6.76359 13.0402 6.45547 13.0984 6.09503C13.1856 5.53693 13.0518 5.11254 12.6972 4.82187C12.3484 4.53119 11.8775 4.38585 11.2845 4.38585H9.22654L8.66844 7.80421Z" fill="black"/>
<path d="M115.607 8.69136V2.77652H117.941C118.388 2.77652 118.769 2.85642 119.085 3.01623C119.402 3.17412 119.644 3.39843 119.81 3.68916C119.977 3.97797 120.061 4.31781 120.061 4.70866C120.061 5.10145 119.976 5.43935 119.807 5.72239C119.637 6.0035 119.392 6.21914 119.07 6.36933C118.751 6.51951 118.364 6.5946 117.909 6.5946H116.347V5.58954H117.707C117.946 5.58954 118.144 5.5568 118.302 5.49134C118.46 5.42588 118.577 5.32768 118.654 5.19675C118.733 5.06583 118.773 4.90313 118.773 4.70866C118.773 4.51227 118.733 4.34669 118.654 4.21191C118.577 4.07713 118.459 3.97508 118.299 3.90577C118.141 3.83453 117.942 3.79891 117.701 3.79891H116.858V8.69136H115.607ZM118.802 5.99965L120.272 8.69136H118.891L117.453 5.99965H118.802Z" fill="black"/>
<path fill-rule="evenodd" clip-rule="evenodd" d="M117.616 10.1359C120.01 10.1359 121.95 8.19567 121.95 5.80223C121.95 3.4088 120.01 1.46853 117.616 1.46853C115.223 1.46853 113.283 3.4088 113.283 5.80223C113.283 8.19567 115.223 10.1359 117.616 10.1359ZM117.616 11.2916C120.648 11.2916 123.106 8.83392 123.106 5.80223C123.106 2.77055 120.648 0.312881 117.616 0.312881C114.585 0.312881 112.127 2.77055 112.127 5.80223C112.127 8.83392 114.585 11.2916 117.616 11.2916Z" fill="black"/>
</svg>
