<svg xmlns="http://www.w3.org/2000/svg" xmlns:xlink="http://www.w3.org/1999/xlink" viewBox="0 0 170 56" width="170"  height="56" ><defs><path id="a" d="M0 .009h42.182v43.294H0z"/><path id="c" d="M.017.05h25.48v27.843H.017z"/></defs><g fill="none" fill-rule="evenodd"><g transform="translate(0 .064)"><mask id="b" fill="#fff"><use xlink:href="#a"/></mask><path fill="#000" d="M31.923 19.685h9.18c.137 0 .275.008.412 0 .274-.018.386.12.415.378.057.525.152 1.048.188 1.575.234 3.385-.162 6.685-1.383 9.868-1.087 2.831-2.87 5.156-5.165 7.112-2.852 2.431-6.142 3.873-9.849 4.404-4.143.594-8.201.299-12.056-1.375C6.089 38.357 1.436 32.65.233 24.438c-.913-6.232.88-11.813 4.938-16.628 3.118-3.7 7.071-6.09 11.771-7.237 2.403-.586 4.838-.678 7.295-.447C27.998.479 31.392 1.785 34.443 4a21.804 21.804 0 011.997 1.643c.214.199.257.35.031.58-1.21 1.231-2.405 2.477-3.613 3.71-.249.254-.264.238-.616-.074-1.496-1.331-3.174-2.36-5.066-3.03-1.91-.677-3.881-.942-5.9-.844-4.24.207-7.816 1.868-10.694 4.982-2.018 2.184-3.314 4.76-3.823 7.692-.825 4.75.16 9.094 3.161 12.9 2.295 2.912 5.31 4.721 8.95 5.443 3.209.636 6.368.42 9.398-.846 2.678-1.119 4.853-2.872 6.273-5.453.804-1.46 1.232-3.049 1.477-4.69.053-.355.028-.38-.386-.383-1.177-.011-2.353-.014-3.53-.015-3.1-.002-6.2 0-9.298 0-.157 0-.315-.008-.471 0-.269.012-.387-.094-.386-.379.008-1.726.007-3.452 0-5.178-.001-.28.11-.383.384-.377.49.012.98.003 1.47.003h8.122" mask="url(#b)"/></g><path fill="#000" d="M126.147 29.213c.018-.985-.177-2.16-.62-3.286-.837-2.126-2.236-3.725-4.418-4.528-3.025-1.114-6.502.029-8.445 2.737-1.277 1.78-1.778 3.777-1.638 5.943.168 2.607 1.212 4.78 3.346 6.332 3.193 2.323 7.6 1.816 10.053-1.463 1.223-1.634 1.733-3.49 1.722-5.735m-.52-10.668c.174-.155.11-.343.114-.51.01-.431.01-.863 0-1.294-.006-.257.057-.402.356-.4 1.707.008 3.413.006 5.12.001.244 0 .366.095.36.344-.002.137.001.275.001.412 0 7.904.005 15.807-.003 23.711-.002 2.182-.163 4.35-.842 6.444-1.547 4.767-4.828 7.533-9.743 8.37-2.171.37-4.334.309-6.467-.307-2.855-.824-5.131-2.475-6.912-4.831a12.982 12.982 0 01-1.472-2.472c-.185-.407-.185-.419.24-.597 1.5-.63 3.002-1.255 4.506-1.875.403-.166.415-.159.611.242.678 1.385 1.618 2.545 2.918 3.39 1.398.91 2.933 1.253 4.593 1.124 1.191-.093 2.326-.351 3.36-.962 1.654-.977 2.572-2.483 3.038-4.3.38-1.481.347-2.994.335-4.504 0-.095.017-.219-.087-.263-.2-.083-.27.113-.368.215-1.544 1.616-3.468 2.472-5.649 2.76-2.504.33-4.899-.125-7.122-1.298-4.281-2.26-6.838-5.812-7.518-10.603-.577-4.072.515-7.743 3.122-10.927 1.881-2.297 4.261-3.871 7.162-4.57 3-.724 5.879-.445 8.537 1.245.498.317.957.683 1.37 1.107.13.134.233.315.44.348M65.895 29.1c.013-.987-.238-2.245-.766-3.448-2.298-5.234-9.203-6.303-12.896-1.994-2.46 2.867-2.725 7.45-.619 10.653 2.923 4.446 9.126 4.74 12.449.581 1.273-1.593 1.828-3.44 1.832-5.792M58.34 15.457c5.004.2 9.168 2.338 11.876 6.946 1.527 2.597 2.03 5.449 1.743 8.443-.282 2.94-1.353 5.554-3.314 7.766-2.772 3.126-6.299 4.702-10.453 4.704-5.262.003-9.412-2.192-12.186-6.712-3.003-4.896-2.773-12.417 2.21-17.231 2.17-2.096 4.775-3.319 7.76-3.75.7-.102 1.405-.113 2.364-.166M96.26 29.394c-.003-1.794-.426-3.34-1.303-4.754-2.847-4.592-9.349-4.919-12.631-.635-2.29 2.988-2.357 7.473-.16 10.575 2.798 3.953 8.452 4.379 11.787.868 1.604-1.689 2.31-3.742 2.307-6.054m-7.835 13.93c-5.792-.223-10.212-2.697-12.733-8.04-2.51-5.322-1.274-11.878 2.907-15.924 2.198-2.127 4.845-3.365 7.882-3.748 3.559-.448 6.887.222 9.871 2.24 3.602 2.435 5.554 5.877 5.982 10.194.264 2.66-.14 5.223-1.353 7.6-2.332 4.57-6.132 7.05-11.204 7.629a9.23 9.23 0 01-.705.047c-.215.008-.43.002-.647.002"/><g transform="translate(144.449 15.44)"><mask id="d" fill="#fff"><use xlink:href="#c"/></mask><path fill="#000" d="M5.935 13.504c.217-.074.347-.11.47-.162 3.725-1.547 7.45-3.094 11.175-4.644.86-.358.88-.413.309-1.16-.965-1.258-2.295-1.855-3.829-2.05-3.05-.39-5.962 1.519-7.23 3.968-.645 1.242-.93 2.563-.895 4.048m6.967 14.39c-3.41-.064-6.925-1.531-9.635-4.717C1.225 20.777.204 17.95.042 14.82c-.16-3.109.422-6.068 2.093-8.732C4.464 2.374 7.848.343 12.227.077c4.528-.275 8.053 1.597 10.727 5.194 1.1 1.48 1.814 3.156 2.469 4.862.135.353.122.363-.35.558l-9.241 3.826-8.318 3.44c-.073.03-.143.066-.217.09-.276.09-.307.247-.171.491 1.044 1.872 2.527 3.209 4.667 3.65 3.314.682 6.366-.32 8.451-3.282.26-.37.265-.376.64-.128a1322.8 1322.8 0 014.07 2.7c.365.242.37.255.128.578-2.842 3.79-6.797 5.858-12.18 5.837" mask="url(#d)"/></g><path fill="#000" d="M135.63 22.002V2.23c0-.76-.073-.71.683-.71 1.647.003 3.295.005 4.942.013.491.002.492.01.502.48.002.099 0 .197 0 .295 0 13.142 0 26.283-.002 39.425 0 .823.13.755-.746.757-1.55.003-3.1.001-4.649 0-.137 0-.275-.005-.412 0-.214.008-.333-.071-.32-.305.01-.156.002-.314.002-.47V22.001"/></g></svg>