<svg xmlns:xlink="http://www.w3.org/1999/xlink" class="index-hero__right--pupp" xmlns="http://www.w3.org/2000/svg" viewBox="0 0 705 505" width="705"  height="505" ><g><path fill="#36F2B9" d="M407.4 407.8c0-.1 0-.1 0 0-.2-3.1-.4-6.2-.9-9.3-.4-2.7-.5-5.8-1.9-8.2-1.8-3.3-7.8-2.5-10.8-2.4-5.3.2-10.5.9-15.7 1.8-8.3 1.5-11.1 5.3-10.8 13.7v4.9c1.2.7 1.4 2.1 1.9 3.2 2.2 5.8 4.8 7.5 11.1 7.1 2.8-.2-.8 1.7 2 1.5 1.4-.1 10.1-.1 20.2-2.6 4.3-.9 5.1-6 4.9-9.7"></path><path fill="#030303" d="M471.2 265.3c-1.8.7-2.6 2.6-4.5 2.6-1.9-4.7-7.7-18.1-9.6-22.7 1.6-.9 3.4-1 5.2-1.2 2 4.8 6.8 16.4 8.9 21.3M395.5 228c-2.8-.7-7.8-6.6-9.8-8.7-.2-.3 1.2-.9 1.5-.9 1.8 0 3.3 1.1 4.9.4.5 1.6 2.8 7.6 3.4 9.2M298.9 89c.2-1.6.5-3.2.6-4.8.1-1.3.4-2.3 1.8-2.5 1.7-.2 2.2 1.1 2.3 2.4.1 1.7 0 3.4-.4 5.2-.4 2.3-4.2 5.1-4.3-.3m23.3 19.3c-2.1-4.8-4-9.6-6.6-14.1l.1.1c-2.9-5.7-6.4-12.5-9.4-17.4-1.3-2.1-2.8-4-4.2-6 .6-1.8 1.7-3 3.6-3.5 7.1 11.1 12.8 22.9 18.3 34.8.6 1.3 1.1 2.6 1.6 3.8-.9 1.2-2 2-3.4 2.3"></path><path d="M150.6 269.7c.1-1.6-.4-2.3-1.3-2.3-1.7.1-2.2 1.5-2.3 2.9-.1.8.6 1.6 1.5 1.5 1.4-.3 2-1.4 2.1-2.1M226 73.9c0-1.8-.6-2.7-2.1-2.7-1.4 0-2.2.9-2.3 2.2-.1 1.5.8 2.6 2.3 2.5 1.3-.2 2.2-1 2.1-2M282.4 57c-1.2 0-2.9-.4-2.9 1.4 0 2.2 2.2 1.6 3.5 1.8 1.3.2 3.3.1 3.2-1.6-.3-2-2.5-1.3-3.8-1.6M361 186c-.1-1.2-.7-2.7-2.5-2.8-1.5-.1-2.4 1.1-2.4 2.5 0 1.6.6 3.1 2.5 3.1 1.6.1 2.4-.8 2.4-2.8M171.8 87.8c.1-1.2-.6-2.4-2.3-2.3-1.9.2-2.7 1.7-2.7 3.5 0 1.6.8 2.8 2.5 2.7 2.2.1 2.4-1.6 2.5-3.9M283 66.4c.8.1 1.2.2 1.5.1 1.2-.1 2.9.1 3-1.6.1-1.5-1.4-1.7-2.5-1.9-2.2-.4-4.4-.7-6.5-1-.9-.1-2-.2-2.4.9-.5 1.4.7 1.9 1.6 2.2 1.8.8 3.7 1.4 5.3 1.3M23.4 366.9c-.1-1-.6-1.4-1.3-1.7-1.1-.5-2.2-.3-2.9.5-1.5 1.8-2.7 3.7-3.4 6-.4 1.2.1 2 1.1 2.6.9.6 1.8.4 2.6-.3 2.1-2 2.4-4.9 3.9-7.1M152 263c-.1-6.1-3.3-9-10.4-10.5-1.5-.3-3.1-.4-3.5 1.2-.4 1.6 1.3 1.8 2.6 2.1 4 .9 7.8 2 8.2 7.1.1 1.1.6 2.2 2 2 1.4-.4 1.1-1.6 1.1-1.9m196.7-86.9c-6.4-.1-11 3.1-15.8 5.9-1.6 1-4.8 1.5-3.3 4.2 1.3 2.3 3.6.3 5.2-.5 5.6-2.8 10.7-6.8 17.6-4.7 1.1.3 2.1-.3 2.4-1.5.2-1.2-.4-2.1-1.4-2.5-1.7-.6-3.4-1-4.7-.9M215.3 97.9c0 1.8-.1 2.7 0 3.5.3 1.5 0 3.6 2.3 3.7 2.3.1 1.9-2 2.1-3.4.6-6.2 1.4-12.3 3.4-18.2.6-1.7.8-3.5-1.1-4.2-2.3-.8-3 1.2-3.6 2.9-1.8 5.3-2.8 11-3.1 15.7m-26.2 16.5c4.7 0 8.6-1.3 10.2-3 .8-.9 1.8-1.9.8-3.1-.7-.9-1.9-.5-2.9-.1-10.4 3.8-20.4-.1-25.5-9.9-.2-.3-.3-.7-.5-.9-.6-.9-1.4-1.7-2.6-1.3-1.4.4-1.5 1.7-1.4 2.9.1.8.4 1.6.7 2.3 4.1 9.9 12.9 11.9 21.2 13.1M59.2 352.8c2.9-.3 7.6-.7 12.2-1.2 6.7-.8 13.2-2.2 19.1-5.6 7.1-4.1 10.4-10.5 10.1-18.8-.1-1.3-.3-2.4-1.8-2.6-1.5-.1-2 1-2.4 2.1-.2.6-.2 1.2-.2 1.7-.7 7.7-4.9 12.6-12.2 15.2-8.1 2.9-16.6 4-25.2 4.3-9.9.3-19.3 2-27.9 7.2-1.5.9-3.5 1.9-2.5 4 1.1 2.3 3 1 4.5.1 7.6-4.4 15.8-6.3 26.3-6.4m130.3-160c-1.9-1.4-1.7-3.4-1.1-5.6-.7.4-1 .5-1.3.7-8.9 6.4-17.8 6.9-26.9.3-.9-.7-2-1.2-3.2-.3-1.3 1-1.2 2.2-1 3.7.2 1.4 1.3 3.7-1.1 4.1-2.1.3-2.1-2.1-2.6-3.6-.2-.6-.1-1.4-.1-2 0-1.5 2.1-3.1.7-4.3-1.1-1-3-.9-4.6-1.3-1.3-.3-2.5-.4-3.8-.6-15.1-1.6-31.7 13.3-35.4 24.8-2.8 8.6-3.4 17.4-2.2 26.3 1.8 13.4 6.1 25.4 16.5 34.6 4.9 4.4 10.2 8 17.4 7.8-2-4.6-1.9-5.2 1.2-9.5.7-1 2.1-1.9 1-3.3-.9-1.2-2.2-1.1-3.5-1-.5.1-.9.3-1.4.3-4.8.7-8.3-3.1-7.4-7.9.4-2.6 2-4.6 3.8-6.6-3.4-1.6-6.9-2.3-9.8-4.3-3.6-2.4-6.5-5.3-7.7-9.6-.3-1.1-.8-2.8.9-3.3 1.5-.5 2.1.9 2.4 1.9 2 5.4 6.3 8.3 11.5 9.9 6 1.9 12 3.7 18 5.5.5.7 1.1 1.3 2 1.2 4.2 4.4 7.5 9 6.1 15.8-1.6 7.8-7.3 13.8-15.4 15.1-1.6.3-2.6.6-2.3 2.5 1 8.3 1.8 16.7 4 24.8 1.1 3.9 2.6 7.5 4.8 10.8.5.8 1 1.5 1.8 2 3.6 2 5.9 1.1 7-2.9 1.1-3.9 2.2-7.8 3.4-11.7.4-1.4 1.1-3.3 3-2.8 2 .5 1.4 2.5.9 3.9-2.1 6.6-3.8 13.4-5.2 20.2 0 .3.1.6.1.9.2-.1.3-.3.5-.4 10.4-4.4 20.1-2.3 29.6 3 7.1 3.9 13.5 8.9 20.3 13.3 10.3 6.6 21.4 9.9 33.7 7.6 3.9-.7 7.2-2.6 10.1-5.4 1.6-1.6 3-3.6 5.3-4.7 1.4 4.6-1.2 7.3-4.1 9.7-1.7 1.4-2.5 2.5-2.2 5.1.8 6.9 4.7 25.8 5.2 26 1.6.5 3.4.1 5.2 0 16.4-.1 32.8.1 49.1 2.1 11 1.3 22.1 2.1 32.9 4.4 3.3.7 6.4 2 9.6 3.1.8.3 2.1.4 1.7 1.7-.4 1.2-1.5 1.4-2.6 1.1-5-1.4-10.1-1.7-15.2-2.7-25.3-5-50.9-5.7-76.6-4.2-8.2.5-16.3 1.2-24.4 2.7-1.3.2-2.6.2-3-1-.5-1.4.7-2.4 2-2.8 2.5-.8 5.1-1.7 7.7-2.1 2.5-.4 4.4-.8 7.5-1.5 1.6-.3.9-1.1.8-1.7-1.6-8.1-3.2-16.2-4.7-24.4-.3-1.4-.6-1.7-1.9-1.3-13.5 3.7-25.7.3-37.2-6.6-5.6-3.4-10.9-7.4-16.4-10.9-7.3-4.7-14.7-8.7-23.9-7.9-2.4.2-4.6.8-6.7 1.9-3.4 1.9-3.7 5-.9 7.5 1 .9 2.1 1.7 3.4 2.7.6-2.8 1.1-5.2 1.5-7.7.2-1.3.6-2.4 2.1-2.3 1.5.2 1.6 1.5 1.6 2.7-.5 11.1 1.2 22 2.2 32.9 1.4 16.3 3.1 32.7 9.2 48 9.5 24 25.6 41.4 52.2 46.3 10 1.8 20.2 2.2 30.4 1.2 4.9-.5 9.9-.8 14.8-1.8 1.4-.3 3-.1 3.4 1.6.5 1.6-.8 2.3-2 2.9-4.9 2.4-10.4 3-15.7 3.4-14.9 1.1-29.7-.3-44.1-4.7-11.6-3.5-19.8-11.8-27.8-20.2-5.8-6.1-9.7-13.5-14-20.6-1-1.7-2.2-3.3-3.4-5.1-1.4 2-1.3 4.1-1.7 6.1-3.4 15.9-12.2 28-25.6 37.2-11.9 8.1-24.7 13.5-38.8 16.2-11.7 2.2-23.3 1.3-34.8-1.5-14.4-3.5-28.5-7.9-40.1-17.5-16.2-13.3-28.7-29-32.9-50.3-3.3-16.7-1.1-32.3 6.5-47.3 6.3-12.6 17.4-18 30.4-20.9 10.5-2.3 21.2-1.7 31.8-3.3 12.3-1.9 18.3-10 17.3-22.6-.5-6.3-1.7-12.6-1.6-18.9.1-7.3 1.9-14.1 5.3-20.5 2.6-5 7.6-7.1 12.4-9.3 3-1.4 6.3-2.2 9.7-3.3-6.3-8.5-9.1-18.5-10.1-28.9-1.4-13.6-1.1-27.2 8.1-38.4 8.3-10.1 18.2-17.9 32.3-17.6 7.4.2 14.3 2.6 20.6 6.2 6 3.4 11.6 4.5 17.7.5 2.2-1.5 4.7-2.6 7.1-3.7 7-3.3 11.1-2.2 15.5 4.3 11.2-8.2 15.2-20 10.5-33.4-2.2-6.4-4.6-12.7-4.6-19.6 0-6.3 2.1-12.1 3.9-18 .4-1.4 1.4-2.7.9-4.6-4.9 3.4-9.8 6.6-15.1 8.9-12.2 5.3-25.3 3.3-33.5-5.3-5.1-5.3-7.7-11.6-8.3-18.9-1-13.5 2.5-25.7 11.3-35.8 8.5-9.8 19.9-13.5 32.8-12.8 10.2.6 17.8 5.9 23.6 13.5 13.1-13.5 28.6-20 47.4-18.1 3.5.4 6.5 1.9 9.3 3.8 7.1 4.8 15 11.9 20.4 18.6-1.4 1.8-2.1 2-3.5 3.8-8.3 2.1-18.9 1.3-27.3-.6.4 5.5 0 10.9-1.8 16-8.8.7-13.6 5.7-15.4 14.2-.8 4.1-1.2 8.3-1.1 12.5-2.9 2.7-5.5 5.9-8.8 8-4.3 2.8-7.1 5.6-4.5 10.9.5 1.1.3 2.1-.9 2.6-1.4.5-1.7-.7-2.2-1.6-1.6-2.8-2.4-6-4.2-8.8-1.6-2.5-3.2-2-4.9-.6-3.7 3.1-5.1 10.9-2.9 15.2 3.5 6.7 9 8.1 16.8 5.1.8 1.3 2.5 1.9 2.3 3.6-1 .7-4.1 1.2-2.9 3.8 3.4 7.8 7.5 19.9 9.7 28.1-.1 2.7 3 12.7 2.5 17.4-.1 1.4.9 1.7 1.7 2.2 4.8 2.8 10.1 3.8 15.5 4 11.8.5 23.4-.3 34-6.6 1.9-1.1 2.3-2.3 1.6-4.2-2.5-6.3-4.4-12.8-5.9-19.4-.7-3.1-1.8-3.9-5.1-3.6-7.5.7-15 .9-22.4-.3-1.5-.3-3.2-.7-3-2.7.3-2.3 2.3-1.7 3.6-1.5 6.4 1.2 12.9.7 19.3.6 10.5-.2 20.7-1.8 30.1-6.8 7.4-3.9 10.5-10.4 9.3-18.7-1.3-8.9-5.2-16.9-8.5-25.1 1.1-.8 2-2 3.6-1.4l5.9 14.1c.8 3.1 1.6 6.1 2.4 9.2 1.2 7.6 1 14.9-4.5 21-1.2.7-2.4 1.3-3 2.6-4.4 2.8-9.1 4.8-14 6.2-2.2.6-2.4 1.7-1.7 3.5 0 .1.1.2.2.3 3.9 11.3 8.9 13.3 19.7 7.9 4.9-2.5 9.7-5 15.5-5.2 8.2-.3 12.7 2.2 15.8 9.9.8 1.9 1.4 4 2.2 5.9 2.1 5 6.1 7.4 12 6.9-3.6-9.8-7.3-19.5-11.7-28.8-2.8-6-6-11.9-6-18.9 0-3 .3-6 3.2-7.7 3.1-1.8 5.9-.3 8.5 1.4 3.4 2.2 6 5.3 8.2 8.6 3.8 5.6 8.4 10.7 11.1 17 .7 1.6 1.5.2 2-.2 5.7-4.2 12-7.3 17.9-11 .4-.2.8-.5 1.2-.7 1.4-.6 2.8-1 3.7.6.8 1.5-.2 2.5-1.3 3.2-3.7 2.3-7.4 4.6-11 6.8-2.4 1.5-4.9 2.8-7.2 4.4-4.5 3.3-5.5 8-2.9 13 1.4 2.6 3 5 4.4 7.6.9 1.6 1.8 3.4-.3 4.6-1.8 1-3.1-.5-3.9-2-2.7-4.7-6.5-9-6.3-15v-1.1c.6-2.5 1.1-5.1 1.7-7.6-3.1-.5-3.6-3.4-5.1-5.4-4.1-5.7-7.7-11.8-12.6-16.9-1.7-1.7-3.7-4.5-6-3.2-2.1 1.2-1.2 4.5-.7 6.9 1.7 7.1 5.6 13.3 8.4 20 6.5 15.7 13.3 33.3 18.8 49.4-1.5-.6 2.3 6.3 5.3 14.5.1.4 8.7 31 10.1 38.4 2.2 11.4 4.6 22.8 3.9 34.5-.1 1-.1 2.1-.4 3.1-.2.8-.9 1.4-1.9 1.3-.8-.1-1.3-.6-1.5-1.3-.2-.9-.5-1.8-.4-2.8.3-7.7-1.1-15.2-2.3-22.7-.7-4.1-3-7.5-4.8-11.1-5.8-11.9-12.2-23.4-19.1-34.7-9.2-14.9-23.4-20.1-39.9-20.8-3-.1-6.1-.1-9.1-.2-10-.5-16.7-6-21.1-14.6-2.1-4.1-2-4.1-6.1-1.9-11.2 5.8-23.2 6.8-35.5 5.7-5.1-.4-9.9-1.4-14.7-3.3-.9-.3-1.9-1.1-2.2.8-3.1 15.9-13.9 24.5-28.3 29.5-2.1.7-5.2 1.2-5.8 2.7-.8 1.8 2.2 3.3 3.4 5.1 3.1 4.7 6 9.5 7.1 15.1.3 1.2.4 2.6.3 3.8-.1 2.1-.9 4-3 4.8-2 .8-3.9.4-5.6-1-2.7-2.3-4.4-5.4-6-8.6-.5-.9-.7-2.3.7-3.1 1.6-.9 2.4.2 3.1 1.3 1.3 2.1 2.6 4.2 3.9 6.2.4.7 1.1 1.4 2 1.1 1.1-.3.7-1.3.7-2.1s0-1.7-.3-2.4c-2.9-7.9-7.1-14.9-13.9-20.2-4.3-3.3-8.7-3.8-13.4-1.5-4.5 2.2-6.5 6.3-6.8 11.1-.4 5.6.5 11.1 2 16.6.4 1.3 1.8 3.1-.3 4-2 .8-2.8-1-3.4-2.6-.1-.3-.4-.6-.8-1.3-2.5 4.6-4.7 8.9-7 13-.9 1.5-.1 2.3.7 3.4 4.4 5.8 8 12.1 9.1 19.5.2 1.5.4 3.1.1 4.5-.7 4-4.4 5.9-7.9 3.9-4.3-2.4-7.4-6.1-9.5-10.6-.6-1.2-1.1-2.8.7-3.6 1.7-.8 2.7.3 3.3 1.6 1.5 3 3.8 5.3 6.2 7.6.6.5 1.2 1.3 2.1.8.7-.4.6-1.2.6-1.9.4-7.3-7.5-20.7-14.2-23.9-3.6-1.7-7.7-1.1-10.7 1.8-3.3 3.2-5.3 7-5.7 11.7-.6 6-1 11.9.7 17.8.3 1 .3 2.3-1 2.7-1.2.4-2-.7-2.3-1.7-.5-1.4-1.1-2.9-1.2-4.4-.7-9.2-1.6-18.5 4.3-26.7 1.5-2.1 3.2-4.2 5.7-5.1 1.9-.7 1.7-1.7 1.3-3.2-1.1-4.6-1.7-9.2-.5-13.9.9-3.5 2.9-5.8 6.3-6.9 4-1.3 8.1-2.5 12.4-2.1 3.8.4 5.4-1 4.7-5.1-6 1.3-10.7-1.9-15.4-5 .5-1.3 1.2-2.6.2-3.8-1.1-1.3-2.5-.4-3.8-.1-.7-1-1.4-1.7-2.8-1.5-1.4.2-2.8.3-4.2.5-1.5.2-3.4.6-3.6-1.6-.2-2.1 1.7-1.7 3-1.8 3.1-.4 6.3-.6 9.4-1.1 8.4-1.4 15.7-5.2 22.7-9.9l-.3-.6-.3.3.6.3c-1.4-1.1-2.9-.1-4.2.1-1.4.3-2.8.6-4.2.2-1.5-.4-4.2-.2-3.9-2.6.3-2.2 2.6-1.4 4.1-1.5.6 0 1.2.1 1.8 0 8.5-1.7 13.4-2.9 14.9-10.5.7-3.9 1-7.8.7-12"></path><path fill="#030303" d="M572.7 406.2c-.5 2.6-2.1 5.1-3.8 7.6-11.5 16.1-23.5 31.8-35.5 47.5-6.3 8.3-12.3 16.8-18.5 25.2-.6.9-1.2 1.7-1.9 2.5-1.4 1.4-2.6 4.3-4.9 2.7-2.6-1.8.2-3.7 1.2-5.2 13.4-19.8 28-38.7 42.9-57.4 5.2-6.5 9.9-13.4 14.9-20 1.1-1.5 1.1-2.3-.5-3.6-18.8-15.1-38.2-29.4-57.9-43.4-1.7-1.2-2.3-.6-3.3.6-8.9 10.3-17.1 21.2-25.4 31.9-1.1 1.4-2.2 2.7-3.4 4-1.4 1.5-3 1.3-4.4.2-1.5-1.2-.5-2.5.4-3.6 9.6-12.3 19.2-24.6 28.8-36.8 2.3-2.9 4-3.1 7.9-.7 4.6 2.8 9 5.9 13.4 8.9 16.3 11 32.3 22.5 47.5 35 2.2 2 2.4 2.4 2.5 4.6M471.3 263.8c7 17.4 14 34.8 18.4 53 2.2 9.2 4.5 18.4 4.6 28 0 5.9-1.1 11.6-3.3 17.1-4.5 11.3-14.1 16.5-24.6 20.4-16.4 5.9-31.8 2.6-46.6-5.4-9.1-4.9-17.2-11.3-25.7-17.1-1.1-.8-1.9-1.5-.5-2.7 1.1-.9 1.5-3.3 3.8-1.6l12.6 9c9.6 6.7 19.6 12.4 31.2 14.6 14.4 2.7 27.4-1 38.4-10.1 8.7-7.3 10.4-17.9 9.2-28.6-2.6-23.5-10.7-45.4-19.4-67.2-1.2-3-2.4-6.1-3.6-9.1 1.8-.2 3.6-1.5 5.5-.3"></path><path fill="#36F2B9" d="M257.8 106.8c-.1 4.1 1.6 7.8 3.4 11.3 3 6 6.7 11.3 13.8 13.1 5.9 1.5 8.7.4 12.7-4.1 4.2-4.9 4.3-10.6 3.8-16.3-1.1-12.8-8.9-22.7-22.6-21.3-3.5.1-5.8 2.1-7.6 4.8-2.7 3.8-3.4 8.1-3.5 12.5M300 91.1l.2.7c1.1 3.5 2.8 6.7 5.1 9.6 2.7 3.3 6.5 5.8 10.7 6.7 2 .4 4.5.7 6.5.1 2-.5 3.4-2.3 4.8-3.8 3.4-3.9 4.7-9.1 4.5-14.2-.1-5.5-1.7-11.3-4.6-16-2.7-4.4-8.1-7.3-13.1-8.1-8.8-1.4-15.2 6.2-16 14.3-.5 3.7.7 7.3 1.9 10.7m-2.5-21.7c1.1-2.1 2.6-4.1 4.6-5.3 10.4-6.5 24.2-1.1 30.1 9 3.9 6.7 5 15.5 3.6 23-1.1 6.1-4.9 14-11.3 16.1-2.3.7-4.7.6-7 .4-8.4-.8-13.4-6.2-18-12.9-.9-1.3-1.3-3.8-2.8-2.8-1.3.8-3.9 1.4-2.6 4.1 2.7 5.9 2.2 12 1.7 18.2-.8 9-8.8 16.6-17.7 16.7l-4.4-.7c-6-1.8-10.4-5.4-13.6-10.8-2.6-4.4-5.5-9.7-5.8-14.9-.4-6.1.5-12.8 3.8-18.1 2.8-4.5 7.5-6.6 12.7-7.1 8.1.8 15.7 2.8 20.4 10.4.7 1.1 1 .8 2.2.1 1.6-.9 3.3-1.3 2.6-2.8-3.1-6.5-1.8-14.8 1-21.2 0-.4.2-.9.5-1.4"></path><path fill="#68E1A9" d="M400.2 388.6c.5.1 1 .2 1.5.4-.4-.2-.9-.3-1.5-.4"></path><path fill="#030303" d="M375 284.4c-1 2.1-1.7 3.6-2.4 5-.5.9-1.3 1.3-2.3.9-.9-.4-1-1.3-.8-2.1 1.7-5.1 3-10.4 6.5-14.6 1.1-1.3 2.5-3 4.4-1.4 2 1.7.1 3-.9 4-1.9 2.1-2.3 3.6-.3 6.2 4.3 5.4 7.9 11.3 12 16.9 10.2 13.9 10.8 28.7 4.8 44.3-4.7 12.3-11.7 23.4-19 34.3-1.1 1.7-2.7 3.1-4.6 1.6-1.9-1.4-.7-3.2.3-4.7 6.3-9.3 12.3-18.8 16.9-29.1 3.9-8.9 6.5-18.1 4.6-27.9-.8-4.3-2.7-8.2-4.9-12-4.3-7.3-10-13.4-14.3-21.4m-38.2-34.1c-.2 6.3-.9 11.5-3.1 16.6-5.1 12.2-18.1 17.2-29.8 14.4-8-1.9-14.8-5.9-20.4-11.7-12.5-13.2-23.5-27.6-32-43.8-.4-.8-.8-1.7-1.2-2.5-.5-1.4-.9-2.9.8-3.6 1.6-.6 2.3.7 2.9 1.9 8.1 15.4 18.3 29.4 30.1 42.1 6 6.5 12.8 11.5 21.8 13.1 13.2 2.4 23.7-5.2 25.5-19.4.4-3.2.2-6.6.3-9.8.1-1.8-.2-4.2 2.4-4.3 2.7-.1 2.5 2.2 2.5 4.1.2 1.2.2 2.5.2 2.9"></path><path fill="#36F2B9" d="M404 258.2c-4.2-2.1-8.1-4.7-11.7-7.7-1.2-1-2.5-2.2-3.1-3.6-.7-1.5-.7-3.3.3-4.6 1.3-1.5 3.5-1.6 5.5-1.3 1.8.2 3.9.7 4.6 2.4.3.7.2 1.7-.4 2-.4.2-.9.2-1.4.1-1.3-.2-2.7-.4-4-.6 5.8 6.8 14.9 10.2 23.1 13.3 16.4 6.3 36.1 9.6 53.3 4.7 1.2-.4 2.5-.8 3.5-1.6s1.8-2.1 1.6-3.3c-.2-1.8-1.9-2.9-3.4-3.8-1-.6-2.1-1.1-3.1-1.6-.6-.3-1.9-2.3-1.4-3.5.5-1.3 2.6-1.7 3.8-1.2 2.5 1.2 4.8 2.9 6.7 5 1.2 1.4 2.3 3 2.7 4.8.5 2.4-.7 4.3-2.3 5.9-2.5 2.6-5.8 3.8-9.2 4.9-2.8 1-5.5 1-8.4 1.3-12.5 1.2-25-.4-36.9-4-6.7-1.9-13.5-4.3-19.8-7.6"></path><path fill="#030303" d="M506.3 426.2c-.9.3-2.1.4-2.3 1.9-.1 1.3.6 1.9 1.8 2 1.4 0 2.1-.8 2.3-2.1.3-1.2-.4-1.7-1.8-1.8m-2.9-1.9c-.1-.2-.1-.6-.3-.9-2.2-2.5-4.9-4.3-7.7-5.9-.7-.4-1.3.1-1.8.6-.5.6-.4 1.4 0 1.9 2.1 2.6 4.9 4.1 7.8 5.6.9.5 1.9.1 2-1.3m2.6 9.8c-.3-.1-.8-.4-1.3-.7-5.2-3.6-10.4-7.2-15.7-10.7-2-1.3-1.7-2.4-.5-3.9 4-5.1 8-10.1 11.8-15.3 1.3-1.7 2.7-1.8 4.3-.9 5.5 3.4 11.2 6.4 16.2 10.5 1.6 1.3 1.9 2.5.5 4.1-4.5 5.3-8.9 10.6-13.4 15.9-.2.7-.7 1.2-1.9 1"></path><path fill="#FFF337" d="M487.3 446.5c-1.3.1-2.3.9-2.3 2.2-.1 1.1.7 2 2 2 1.4-.1 2.5-.9 2.5-2.4 0-1.2-.9-1.9-2.2-1.8m-6.9 6.9c1.9-.1 3.4-.5 3.5-2.3.1-1.4-1.1-1.9-2.4-2-.8-.1-1.6-.3-2.3-.6-1.4-.5-3.1-1.7-4 .1-1 1.9.9 2.9 2.4 3.6.9.7 2.1 1 2.8 1.2m-.6-23.1c7.3-1.7 12.3-.1 15.5 4.8 3.9 6.1 1.6 14.2-5.5 19.6-5.1 3.9-13.1 3.3-17.1-1.7-4.5-5.5-5.3-13.7 2-19.9.4 1.5.6 3.2 2.8 2.9 1.9-.2 1.7-2 2.1-3.2.2-.9.2-1.7.2-2.5"></path><path fill="#030303" d="M402.6 417.4c.4 1.2-2 2.5-3.6 2.7-1.7.1-2.2 0-2.3 2.4-.3 4.3-1.1 8.5-2.4 13.1 9.3-2.6 18.2-4.6 26.9-7.6.8-.3 1.5-.6 2.3-.8.8-.2 1.7-.2 2.2.7.5 1 .1 1.7-.8 2.4-1.6 1.2-3.5 1.9-5.4 2.5-15.7 4.6-31.3 9.2-47 13.9-.4.1-.9.2-1.4.2-1.4.2-2.7.1-3.2-1.5-.4-1.5.6-2.4 2-2.8 2.5-.7 4.9-1.5 7.4-2 2.4-.4 3.6-1.7 4.2-4 1.1-4.2 1.7-8.5 2.1-12.7.2-2.1-.5-2.7-2.5-2.4-1.2.1-2.3.1-3.5 0-6.7-.6-10.6-4.5-11.4-11.1-.1-1.2.3-1.7 1.1-2.3 1.2.7 1.4 2.1 1.9 3.2 2.2 5.8 4.8 7.5 11.1 7 2.8-.2 5.6-.3 8.4-.4 1.4-.1 2.6.3 2.6 2-.2 1.1-2.4.9-3.6.9-1 0-1.4.4-1.3 1.5.5 5.4-.4 10.6-1.7 15.7 4.5 0 6.1-2.8 7-6.3.9-3.8 1.8-11.7 1.8-11.7.4-3.4 9.3-4.9 9.1-2.6m91 86.3c-.8 2-2.3 1.3-3.8.4-4.5-3.1-9.1-6.1-13.6-9.3-14.4-10.4-28.3-21.6-42-32.9-3.4-2.8-3.5-4.1-1-7.7 3.1-4.3 6.3-8.4 9.4-12.7 1.2-1.6 2.7-2.1 4.2-1.1 1.7 1.1 1 2.6.1 4-2.6 3.8-5.1 7.6-7.8 11.2-1.5 2-1.6 3.2.6 4.9 14.4 11.4 29 22.6 43.7 33.6 3 2.2 6.1 4.3 8.7 7 .8.6 1.6 1.2 1.5 2.6m-14-74c-.1.8-.1 1.7-.3 2.4-.4 1.3-.2 3-2.1 3.2-2.1.3-2.4-1.4-2.8-2.9.7-10.8-2.6-20.6-9.8-28.4-8.4-9-19.5-11.6-31.4-10.6-6.5.5-12.9 1.8-19.4 2.7-1.3.2-2.4.2-2.7-1.3-.3-1.4.7-1.8 1.8-2.1 10.7-2.6 21.4-5.3 32.5-3.3 19.7 3.5 30.3 15.8 33.5 35 .3 1.8.5 3.6.7 5.3m16.2 37.9c-.8 0-1.5-.2-1.8-1-.4-1-.3-2 .5-2.9 8.9-11.6 17.7-23.3 26.6-35l6-7.8c1-1.3 2.5-2.1 3.9-.9 1.5 1.3.7 2.7-.3 4-10.1 13.4-20.2 26.7-30.4 40.1-1.1 1.5-2.3 3.3-4.5 3.5m-83.6-275.2c-.2-4.2 1.3-7.9 4.1-11.1 2.7-3.2 5.7-6.2 9-8.9.9-.7 1.9-1.3 2.8-.5 1.1.9.7 2.2-.1 3.1-2.6 3-5.3 5.9-7.8 9-3.9 4.8-4.2 9.8-1.5 14.3 1 1.7 1.8 1.8 3.1.4 1.9-2 2.8-4.6 3.9-7 .8-1.7 1.5-3.4 2.4-5.1.6-1.2 1.8-1.5 3.1-1 1.4.5 1.7 1.7 1.2 2.9-2.1 5-3.6 10.4-7.7 14.4-3.3 3.2-6.8 3-9.5-.9-2-2.8-3.4-5.9-3-9.6m50 51.5c-1.6.9-2.8 2.1-4.6 2.6-5.6-12.6-15.9-30.6-23.1-42.4-.8-1.3-1.6-2.6-2.3-3.9-.8-1.4-.9-2.8.5-3.7 1.4-1 2.7-.3 3.6.9.7.9 1.4 1.9 2 2.9 7.9 12.5 15.7 25.1 21.6 38.8"></path><path fill="#FFF337" d="M189.3 164.7c-.1 4.5 1.5 6.1 5.3 6.3 2.6.2 4.4-1.6 4.4-4.2s-3.5-6.3-6.1-6.1c-2.9.3-3.4 2.6-3.6 4m5 10.7c-6.5 0-10.7-3.4-10.7-8.6 0-5.9 4.2-10.4 9.7-10.4 6 0 11 4.6 10.9 10-.1 5.5-4 9.1-9.9 9"></path><path fill="#030303" d="M399.9 188.2c0-6.3 2.2-10 5.4-13 3.7-3.4 7.7-6.5 11.6-9.7 1.2-1 2.8-1.9 4-.3 1.1 1.4-.3 2.6-1.3 3.5-3.4 3.1-6.9 6-10.2 9.1-5.5 5.3-5.7 8.8-1.4 14.9.8 1.1 1.6 2.3 2.3 3.5.5 1.1.6 2.4-.5 3.2-1.1.8-2.2.6-3.3-.2-2.8-1.7-6.6-9.3-6.6-11m109.7 186.1c-1-.1-1.3.8-1.8 1.4-2.2 2.8-4.3 5.6-6.5 8.3-.9 1.1-2.2 2.6-3.8 1.1-1.4-1.3-.4-2.8.5-4 2.5-3.2 5-6.5 7.5-9.7 1.4-1.8 2.9-2.5 5.1-1.3 4.6 2.4 8.5 5.8 12.7 8.7 1 .7 1.6 1.8.7 3-.9 1.3-2.2 1.3-3.4.4-3-2.1-5.8-4.3-8.8-6.5-.6-.5-1.4-.9-2.2-1.4m-43 61.7c-.1 1.1-.4 2.2-1.6 2.4-1.2.2-2.1-.6-2.4-1.7-1-3.5-2-7-2.8-10.5-1.4-6.4-3.8-12.3-8.9-16.7-.9-.7-1.5-1.6-.5-2.7.8-.9 1.7-.9 2.8-.3 1.3.7 2.3 1.6 3.3 2.6 7 7.7 8 17.5 10.1 26.9M268 263.3c1.3-.1 1.9.8 2.6 1.5 2.1 2.4 4.2 4.7 6.2 7.2 2.6 3.4 5.6 6.3 9.4 8.3.6.3 1.2.8 1.7 1.2 1.2 1 1.8 2.3.8 3.7-.9 1.3-2.3 1.1-3.5.5-8.3-4.2-13.4-11.5-18.3-18.9-1.2-1.7-.5-3.3 1.1-3.5m251.1 187.8c0 1.1-.6 2-1.1 2.9-3.4 5.6-7.8 10.4-11.7 15.7-.8 1.2-1.9 1.9-3.3 1.1-1.4-.9-1.4-2.4-.5-3.7 4-5.7 8.1-11.4 12.2-17.1.8-1.1 2-1.2 3.2-.9 1 .3 1.1 1.2 1.2 2"></path><path fill="#36F2B9" d="M152 250.5c-1 .1-1.5-.5-2-1.2 0-2.6 1.4-4 3.5-5.2 5.5-3 10.1-7.1 14.2-11.9 1.3-.3 2.7-1.2 3.8.1 1 1.2.3 2.6-.2 3.8-5.5 5.2-11 10.5-18 13.8-.4.4-.9.5-1.3.6"></path><path fill="#030303" d="M456 435.2c0 1.3.2 2.5-1.1 2.7-1 .2-1.9-.2-2.3-1.2-.6-1.4-1.2-2.8-1.7-4.2-2.1-5.9-4.4-11.8-8.3-16.8-.8-1-1.3-2.2-.2-3.1 1.1-.8 2.2 0 3.1.9 3.6 3.8 5.9 8.4 7.8 13.2 1.1 2.9 2.3 5.8 2.7 8.5"></path><path fill="#36F2B9" d="M396.9 233.7c-4.2-2.1-8.1-4.7-11.7-7.7-1.2-1-2.5-2.2-3.1-3.6-.7-1.5-.7-3.3.3-4.6 1.3-1.5 3.5-1.6 5.5-1.3 1.8.2 3.9.7 4.6 2.4.3.7.2 1.7-.4 2-.4.2-.9.2-1.4.1-1.3-.2-2.7-.4-4-.6 5.8 6.8 14.9 10.2 23.1 13.3 16.4 6.3 36.1 9.6 53.3 4.7 1.2-.4 2.5-.8 3.5-1.6s1.8-2.1 1.6-3.3c-.2-1.8-1.9-2.9-3.4-3.8-2.3-1.3-4.7-2.4-7.1-3.4-1-.4-2.1-.8-2.8-1.7-.7-.8-.8-2.3 0-3 .6-.5 1.4-.4 2.2-.3 5.2.7 10.1 3.2 13.6 7.1 1.2 1.4 2.3 3 2.7 4.8.5 2.4-.7 4.3-2.3 5.9-2.5 2.6-5.8 3.8-9.2 4.9-2.8 1-5.5 1-8.4 1.3-12.5 1.2-25-.4-36.9-4-6.7-1.9-13.4-4.3-19.7-7.6"></path><path fill="#030303" d="M290.8 213c.1-1.7 0-4 2.6-4.7 2.6-.6 3.7 1.4 4.7 3.3.3.6.5 1.3.8 1.9 1 3.2.3 5.5-2.1 6-2.9.7-5.4-1.1-5.9-4.4-.1-.5-.1-1.1-.1-2.1m-111.9 99.1c-.1 1.3-1 1-1.8.9-3.7-.6-10.8-8.9-10.8-12.6 0-1 .3-1.9 1.3-2.2.8-.2 1.7-.3 2.2.6 2 4.5 6 7.5 8.3 11.7.3.5.5 1 .8 1.6m17-53.9c.1-.7.2-1.9 1.7-2 1.5-.2 1.7.9 1.9 2 1 5 3.9 8.8 7.6 12.1 1.2 1.1.3 1.5-.6 1.9-1.2.5-2.4-.1-3.3-.7-4.4-3-7.1-7.2-7.3-13.3m9.2-2c-.1-1.7-.3-2.6 1-3 1.2-.4 2.1.2 2.6 1.3 1.5 3.6 3.4 6.9 6 9.8.7.8 1 2 .2 2.9-1 1.1-2.2.7-3.2-.1-3.8-2.9-5.5-7.1-6.6-10.9m239.1 176.2c.2 1.6-.1 2.2-.8 2.5-.7.3-1.5-.1-1.8-.7-2.3-4.3-4.6-8.5-6.8-12.9-.5-1 .1-2.3.9-2.8 1-.6 1.7.7 2.1 1.3 2.7 4.2 4.8 8.7 6.4 12.6"></path><path fill="#FEFEFE" d="M160.5 329.7l-.5.4c0-.3-.1-.6-.1-.9l.6.5m31.6-112l-.6-.3.3-.3.3.6"></path><path fill="#030303" d="M304.1 108.2c1.8 2.5 3.5 5 4.8 7.8 1.3 2.7 2.7 5.9 1.9 9-.6 2.3-2.4 3.8-4.5 4.6-.6.2-1.3.9-1.8.1-.5-.6-.3-1.4 0-2 .2-.5.5-1.1.9-1.5 2.7-2.5 2-5.2.3-7.9-2.6-4.3-5.4-8.4-8-12.7-.4-.7-1.2-2-.6-2.8.6-.9 2.4-1 3.1-.3 1.1 1.1 1.8 2.5 2.6 3.7.4.8.9 1.4 1.3 2m-36-18.3c-2.7 6.4-6.1 12.3-11 17.3.1-4.4.8-8.7 3.4-12.5 1.8-2.7 4.1-4.7 7.6-4.8m9.7 46.6c-.6 1.2-1.3 2.3-2.9 2-1.5-.3-1.6-1.5-1.5-2.7l4.4.7zm116.5 271.3c-1 .1-2.9.5-2.9 1.8 0 1.4 1.4 2.2 2.7 2 1.4-.2 3.5-.5 3.5-2.2 0-1.1-1.7-1.7-3.3-1.6m0 6.4c-2.6 0-5.5-2.5-5.6-4.8 0-2.2 2.3-4.2 5.1-4.3 3.7-.1 6.9 2 6.8 4.5-.1 2.3-3.3 4.6-6.3 4.6m-14.2-14.7c-1.3 0-2.9-.2-2.9 1.2 0 1.8 2 2 3.4 2.1 1.1.1 2.8.1 2.7-1.4-.1-1.8-1.8-1.8-3.2-1.9m-.3-2.5c3.1 0 6.1 2.2 6.3 4.5.1 2.1-2.4 4-5.3 4-3 0-6.5-2.8-6.4-5 .1-2 2.4-3.5 5.4-3.5m23.6-3c.2 1.2.9 2.9-.7 3.4-1.8.6-1.8-1.1-2.1-2.3-.7-2.8-3-2.3-5.1-2.4-1 0-2.7.7-2.7-1.1 0-1.4 1.5-1.5 2.7-1.7 6.9-.6 7.7 3.3 7.9 4.1m-11.1 8.3c-.7-.1-2.5.5-2.6-1.3 0-1.7 1.8-1.4 3-1.5 1.8-.2 3.7-.4 5.5-.6.6-.1 1.2.1 1.4.7.3.9-.5 1.3-1.1 1.5-1.8.8-3.7 1.2-6.2 1.2m-13.7-9.1c0 1.1-.4 1.7-1.3 1.8-.9.1-1.6-.3-1.7-1.3-.2-1.1.3-1.8 1.5-1.9.8 0 1.3.7 1.5 1.4m6.1 0c0 1.1-.4 1.7-1.3 1.8-.9.1-1.6-.3-1.7-1.3-.2-1.1.3-1.8 1.5-1.9.8 0 1.3.7 1.5 1.4"></path><path fill="#FEFEFE" d="M504 424.3c-.1 1.4-1.1 1.8-2 1.4-2.9-1.4-5.7-3-7.8-5.6-.4-.5-.6-1.3 0-1.9.5-.5 1.1-1 1.8-.6 2.9 1.6 5.5 3.4 7.7 5.9.2.1.2.5.3.8m2.3 2.3c1.3.1 2 .6 1.8 1.8-.2 1.2-.9 2.1-2.3 2.1-1.2 0-2-.7-1.8-2 .2-1.5 1.4-1.7 2.3-1.9m-25.4 26.1c-.7-.3-1.9-.5-2.9-1.1-1.4-.8-3.3-1.7-2.4-3.6.9-1.9 2.6-.6 4-.1.8.3 1.5.5 2.3.6 1.3.1 2.5.5 2.4 2 0 1.6-1.5 2-3.4 2.2m6-6.7c1.3-.1 2.1.6 2.1 1.8 0 1.5-1.1 2.3-2.5 2.4-1.3.1-2-.8-2-2 .2-1.4 1.1-2.1 2.4-2.2"></path><path fill="#030303" d="M308 147.7c-5-.5-9.6-1.7-13.5-4.8-1-.8-2.4-1.6-1.4-3.1.9-1.5 2.4-.9 3.4-.3 3.6 2.3 7.6 3.5 11.8 4 1.4.2 2.7.6 2.6 2.2 0 1.9-1.6 1.9-2.9 2m-23.4-5.5c-.2 1.7-1.2 2.5-2.6 2.5-1.5 0-2.5-.9-2.4-2.4 0-1.5 1.1-2.3 2.5-2.3 1.5-.1 2.2 1 2.5 2.2m-9.1 4c-.2 1.2-.9 1.9-2.1 2-1.5 0-2.1-.7-2-2.2.1-1.2.8-2 1.9-2.1 1.4 0 1.9 1.2 2.2 2.3m-135.8 61.4c-5.3-.2-7.9 4-6.1 9.7.3 1 .3 2.4 1.6 2.3 1.6-.1 1.3-1.6 1.4-2.7.4-3.2.6-6.5 5.4-5.6 1.1.2 1.9-.3 2-1.4.1-1.1-.6-1.8-1.6-2-.9-.2-1.8-.2-2.7-.3m-2 19.3c-10.3-.2-13.8-5.3-14.2-14.4-.4-8.1 7-14.2 16.6-14.4 7.3-.1 12.9 6.4 12.7 14.2-.2 8.1-7.1 14.8-15.1 14.6m-3.4 45c-1.6 0-2.7-.4-2.7-2.2 0-2.4 1.8-3.3 3.7-3.4 1.5-.1 3.2.5 3 2.6-.3 2.6-2.3 2.8-4 3m36.4-59c-.1.9-.6 1.6-1.5 1.6s-1.8-.4-1.8-1.6c0-1 .5-1.5 1.5-1.5 1-.2 1.5.6 1.8 1.5m-3.4 4.6c0 1.3-.4 1.9-1.4 2-.9.1-1.7-.3-1.6-1.4 0-.8.2-1.6 1.3-1.7 1-.1 1.4.6 1.7 1.1M272 106.3c.1 1.5-.1 3.2-.6 4.9-.4 1.2-1.2 1.7-2.3 1.6-1.3-.2-1.8-1.2-1.7-2.3.1-2.3.4-4.6.9-6.9.2-1.1.4-2.5 2-2.5 1.7.1 1.9 1.4 1.9 2.8-.1.7-.2 1.4-.2 2.4m6.5 6.9c0-1.8.8-2.9 2.7-2.9 2 0 4.3 3.1 4.2 5.7-.1 1.5-.8 2.4-2.3 2.5-2.3.2-4.6-2.5-4.6-5.3M314 99c-1.4.6-2.6.1-3.4-1-1-1.4-2.1-2.9-1.1-4.8.6-1.1 2-1.5 3.1-1.2 2.3.6 3.9 5.9 1.4 7m69.2 312.6c-.9 0-1.5-.5-1.7-1.5.1-.9.7-1.4 1.6-1.4.8.1 1.7.3 1.7 1.3 0 .9-.7 1.5-1.6 1.6m-5.9.4c-.9 0-1.5-.5-1.7-1.5.1-.9.7-1.4 1.6-1.4.8.1 1.7.3 1.7 1.3 0 .9-.8 1.6-1.6 1.6m9-2.4c-.4-1.5-1.7-2.4-3.2-2.3-.3 0-.5.1-.8.2-.9.3-1.6.8-2.5.7-.9-.1-1.7-.7-2.5-.9-.3-.1-.6-.1-.9-.1-.4.1-.8.2-1.2.4-.7.4-1.2 1-1.5 1.7-.6 1.5-.2 2.7 1 3.8 1.4 1.2 2.9 1.6 4.5.6 1-.6 1.6-1.7 3-.6 1 .8 2.3 1.1 3.5.1 1.1-1 1-2.4.6-3.6"></path><path d="M188.2 216.5c-2 6.9 2.4 9.8 13.3 8.6 10.9-1.2 7.5-4.8-10.2-10.7l-3.1 2.1z"></path></g><g><path fill="#FFF337" d="M383.6 85.1c-3.9 0-7.1-3.2-7.1-7.1V61c0-1.8-1.1-5.8 0-7.1 1.3-1.4 5 0 7.1 0h22.1c3.9 0 7.1 3.2 7.1 7.1v17c0 3.9-3.2 7.1-7.1 7.1h-22.1z"></path><path fill="#030303" d="M447.1 46.8c-23.3-.6-46.6-1.1-69.9-1.7-3.5-.1-7 .1-10.5 0-1.7 0-2.1.5-2.1 2.2.2 14.1-1.2 28.1-2.2 42.1-.7 10.2-1.5 20.3-2.3 30.5-.1 1.5.3 3.5-1.9 3.5-2 0-2-2.1-2-3.5.3-6.4.7-12.9 1.2-19.3 1.6-22.9 3.5-45.8 2.8-68.8-.1-3.6.4-7.2 1.6-10.7 1.1-3.3 3.4-4.9 6.9-4.9 10 .1 19.9.6 29.9.3 25.9-.7 51.8.1 77.6.6l51.3.9c1.7 0 3.7-.2 3.7 2.1 0 2-1.9 2.9-3.8 2.9-4 .1-8 .1-12-.1-16.3-1-32.6-.9-48.9-1.4-28-.9-56-.2-84-.5-4.4-.1-8.9-.2-13.3-.5-1.9-.1-2.9.6-3.4 2.3-1.8 5.6-1.2 11.4-1.2 17.1 0 1.7 1.6 1.1 2.5 1.1 6.2 0 12.4-.1 18.6.1 14.3.4 28.6.6 42.9.8 32.7.4 65.4.6 98.1 1 2.4 0 2.9-.6 2.9-3 0-2.8-.2-5.6-.3-8.4-.1-1.8.6-3.5 2.7-3.4 1.9.1 2.1 1.8 2.1 3.5.2 12.2.6 24.4-.1 36.5-1.1 18-.8 36.1-1.2 54.1-.1 4-1 7.8-2.6 11.6-2.1 5-6.6 5.6-10.8 5.5-21.3-.3-42.7-.8-64-1.6-21.3-.8-42.6-1.8-63.9-2.9-6.1-.3-12.1-1.4-18.1-2.2-1.5-.2-3.4-.6-3.1-2.6.3-2 2.1-1.8 3.7-1.6 30.1 3.5 60.3 3.9 90.5 4.7 18.6.5 37.2.9 55.9 1.4 4.7.1 5.9-.8 6.9-5.5 1.6-7.1 1.3-14.2 1.2-21.4-.3-17.3.5-34.5 1-51.7.2-8 .4-8.1-7.6-8.3-23.1-.3-46.2-.5-69.3-.7-2-.1-3.8-.1-5.5-.1"></path><path fill="#030303" d="M512.8 88c1.3.9 4.2-.5 4.1 2.1-.1 2.6-2.8 2-4.5 1.9-12.8-.2-25.5-.5-38.3-.7-11.9-.3-23.9-.5-35.8-.8l-11.6-.3c-2.5-.1-3.4-1.2-3.3-3.8.4-8.6 2.1-17.2 1.5-25.9-.3-5 1.8-6.8 6.8-7 21.4-.7 42.8-.9 64.2 0 6.1.3 12.1.9 18.2 1.3 2.4.2 3.6 1.1 3.8 3.9.4 5.1 0 10.3 0 15.4 0 1.2-.2 2.6-1.8 2.5-1.6-.1-1.4-1.5-1.4-2.7.1-4-.1-8 .2-11.9.2-2.7-1-3.3-3.4-3.5-22.2-1.4-44.5-1.8-66.8-1.3-4.8.1-9.6.2-14.4.1-1.8-.1-2.3.5-2.3 2.1v10.4c2-.8 2.3-2.2 3-3.1 4.7-6.3 11.7-6.7 17.1-.9 2.6 2.9 4.6 6.2 6.7 9.5 3.1 4.8 6.1 4.7 9.1-.1 2.9-4.7 7.8-5 11.2-.6 2.7 3.5 2.7 3.4 5.1-.4 1.7-2.7 3.4-5.4 6-7.3 3.7-2.6 7-1.9 8.8 2.3 1.2 2.8 2 5.7 3 8.6.7 2.1 1.5 2.6 3.4.9 3.4-3 4.8-2.7 7.2 1 1.3 2 3.3 3.7 3.6 6.2-2.9.6-4.6-1.3-6.1-3.3-.9-1.2-1.6-1.6-3-.4-4.1 3.5-6.1 3.1-8.3-1.9-1.2-2.9-2-6-3-9-.8-2.7-2.3-2.7-4.1-.9-2.3 2.2-3.8 5-5.4 7.7-3 5.1-6.1 5.1-9.5.1-2.7-4-4-4-6.4.1-1.7 2.9-3.9 4.5-7.4 4.1-3.3-.3-5.6-2-7.3-4.7-2.2-3.5-4-7.2-7-10.1-2.8-2.8-6.5-3.6-8.8-1.2-4.8 5-8.7 10.6-9.1 17.9-.1 2.1.8 2.2 2.4 2.3 19.6.4 39.2 1 58.9 1.3 8.3.2 16.5.7 24.7.1"></path><path fill="#FFF337" d="M513.4 88.3c-8.2.6-16.4 0-24.5-.1-19.6-.3-39.2-.9-58.9-1.3-1.7 0-2.6-.2-2.4-2.3.4-7.3 4.4-12.9 9.1-17.9 2.3-2.4 6-1.6 8.8 1.2 3 2.9 4.8 6.6 7 10.1 1.7 2.8 4 4.4 7.3 4.7 3.5.3 5.7-1.2 7.4-4.1 2.4-4.2 3.7-4.1 6.4-.1 3.4 4.9 6.5 4.9 9.5-.1 1.6-2.7 3.1-5.5 5.4-7.7 1.8-1.7 3.2-1.7 4.1.9 1 3 1.7 6.1 3 9 2.1 5 4.1 5.5 8.3 1.9 1.4-1.2 2.1-.8 3 .4 1.5 2 3.2 3.9 6.1 3.3.1.6.3 1.3.4 2.1"></path><path fill="#030303" d="M375.6 82.7c-.6-2.1 26.4 1.1 29.2 1.2 5.4.2 5.3.3 5.5-5 .2-4.9.5-9.8.8-14.7.1-1.8.4-3.6 2.6-4 1.6.7 1.7 2.1 1.5 3.6-.6 6.6-1.1 13.3-1.7 19.9-.2 2.9-1.4 4.4-4.7 4.2-10.3-.8-20.5-1.5-30.8-2.2-1.7-.3-2.8-.9-2.4-3m37-26c-10.1-.1-20.3-.5-30.4-1.3-5.1-.4-5.1-.3-5.3 4.9-.2 5.6-.5 11.2-.6 16.8 0 1.5-.4 2.7-1.4 3.9-2 0-2.6-1.3-2.5-3 .4-6.8.6-13.6 1.1-20.3.3-4.8 1.5-5.7 6.3-5.6 10.2.3 20.4.6 30.5 1.1 3.6 0 3.8.8 2.3 3.5"></path><path fill="#36F2B9" d="M545.6 8.9h.3c.5 0 1 .1 1.6.1.4 0 .9.1 1.3.1.6-.1.4-.8.4-1.2V5.6c.2-2.1-.2-5.6 2.8-5.7 2.3-.1 2.7 2.5 2.8 4.3 0 1.5-.2 2.9-.3 4.4-.1.9 1 1.1 1.6 1.2 1.7.4 3.5 0 5.3.3 1.3.2 2.2 1 2.3 2.6 0 1.7-1.2 2.1-2.6 2.2-.3 0-4.2-.1-4.9-.1-1.7-.1-2-.5-2 1.6 0 1 .1 2.4.1 4.5-.1 2.1-.5 3.3-2.4 3.4-2 0-2.5-1.7-2.5-3.5 0-1.6.1-3.3.2-4.2.1-2.6.6-2.3-3.7-2.4-1.5-.1-3.2 0-4.7-.3-1.3-.2-1.6-2.1-1-3.5.5-1.1 1.6-1.4 2.7-1.4.8-.1 1.7-.1 2.7-.1"></path><path fill="#030303" d="M492.1 104.3h-3.8c-6.3-.1-12.8-.7-19 0-1.2.1-2.8.1-3-1.7-.2-2 1.5-2.1 2.9-2.2 6.3-.8 12.7.1 19 0 6.3 0 12.6.1 18.8-.3 1.8-.1 4.8-.9 5 1.7.2 2.9-2.9 2.1-4.6 2.2-5 .2-10.2.3-15.3.3m-3 6.3c1.7 0 3.4.1 5.2.1 3.5 0 7 0 10.4.1 1.6 0 4.7-.5 4.9 1.9.2 2.9-2.8 2.1-4.6 2.1-11 .3-22 .6-33-.4-1.5-.1-3.8.3-3.6-2.2.2-2 2.2-2.1 3.8-2.1 5.6 0 11.3.4 16.9.5m-40.5-7.6c-7.4.1-14.7-1.4-22.1-1-1.1.1-1.9-.3-2-1.4-.2-1.5.9-2.1 2.1-2.4 3.1-.7 6.3-.3 9.4-.1 6 .4 11.9.7 17.9.7.8 0 1.6.1 2.5.2 1.3.2 2.8.4 2.7 2.1 0 1.8-1.5 1.9-2.8 1.9h-7.7m-14.7 4.1c4.1.2 8.2.6 12.2 1 1.3.1 3.2.2 3.2 2-.1 1.6-1.7 2.2-3.2 2.1-6.2-.4-12.4-.8-18.5-1.2-1.2-.1-2.1-.7-2.1-1.9 0-1.3 1-1.9 2.1-2 2.1-.1 4.2-.1 6.3 0m48.1 17.8c-1.5 0-3-.2-3.8-.3-2.1-.2-10.1-.4-9.8-3.5.2-2.1 2.2-1.8 3.6-1.8 3.8.1 7.7.4 11.5.6 1.5.1 3.3.3 3.2 2.4-.1 2.1-2.4 2.6-4.7 2.6m-49.4-3.4c-1.7-.1-3.5-.2-5.2-.4-.9-.1-1.9-.4-1.9-1.7 0-1.1.8-1.8 1.7-1.9 3.7-.4 7.4-.5 11.1.4 1 .2 1.7 1 1.6 2-.1.9-.9 1.5-1.7 1.5-1.9.2-3.7.2-5.6.1"></path><path fill="#FFF337" d="M383.1 29.4c.1 3-1.9 5.3-4.4 5.1-2.3-.2-4.1-1.2-4.2-3.8-.1-2.4 2.4-5.5 4.3-5.3 2.4.3 4 1.7 4.3 4m11.6 2.5c-.2 2.1-1.4 3.8-4.1 3.8-2.4 0-4-1.4-3.9-3.9 0-2.5 1.4-4.3 4.1-4.2 2.4-.1 3.9 1.2 3.9 4.3m13.1-1.9c0 3.4-1.8 5.3-4.2 5.1-2.5-.3-3.6-2.1-3.6-4.4 0-2.7 1.9-4 4.3-4.2 2.7-.2 3.4 1.8 3.5 3.5"></path><path fill="#030303" d="M398.4 84.6c-3.9.6-7.8.9-11.7 1.3-2.6.3-3.4-1-3-3.3.8-4.1 3.5-6.9 4.9-8.5.5-.6.5-1.6-.1-2.2-1.2-1.2-2.3-2.7-2.2-4.4.2-4.7 6.8-6.1 10.8-5 1.9.5 3.2 2.3 3.2 4.3a7.4 7.4 0 0 1-2.9 5.6c-.7.5-.9 1.5-.4 2.2 1.5 2 3.7 4.3 4 6 .7 3-.5 3.7-2.6 4"></path></g><g><path fill="#36F2B9" d="M588.2 194.8c.1 5.9-2.6 13-3.3 18.9-.4 3.4-3.3 4.5-6.5 4.5l-20.3-.3 6.3-13.1c0-.1 6.1-12.3 20.5-10.8 1.7.2 3.3.2 3.3.8z"></path><path fill="#36F2B9" d="M642.7 222.9c.8-.1 1.7-.6 1.7-2.1 0-1.4-.9-2.1-2.2-2.1-1.4.1-2 1-2 2.3 0 1.4.7 2 2.5 1.9M674 249c-.1 1.6-.1 2.6.9 3.1 1.2.6 2.1 0 2.7-.9 2.4-3.9 4.8-7.8 7-11.8.7-1.3.3-2.6-.9-3.4-1.1-.8-2.4-.5-3.1.5-2.9 4.1-4.8 8.6-6.6 12.5m-33.1-20.9c0-1.7-.3-2.8-1.7-3.1-1.6-.3-2.7.4-3.4 1.8-2.5 5.3-4.9 10.6-6.4 16.3-.5 1.8-.3 3.5 1.6 4.1 1.6.5 2.4-1 3-2.3 2.1-4.9 4.3-9.9 6.4-14.8.3-.8.4-1.6.5-2m-52.4-34.3c0-.1 5.8 3.2 6.3 3.5 3.3 2 5.7 4.9 7.6 8.3 6 10.8 7 23.5 12.5 34.5.7 1.4 1.6 2.6 2.9 3.5 2.9 2.1 5.6 1.7 7.2-1.6 2-4.2 3.6-8.6 5.4-13 1.8-4.4 4.1-8.4 6.9-12.2 4.1-5.3 9.9-5.4 14.3-.3 4.5 5.3 6.5 11.9 9.2 18.1 1.3 3 2.4 6.1 3.8 9.1.8 1.7 2.1 3.1 4.3 3.3 2.3.1 2.8-1.9 3.6-3.3 2.2-4.1 4.2-8.4 7.4-11.9 4.8-5.3 10.7-5 14.7.9 4.5 6.8 7.7 14.2 9.4 22.2 1.1 5.1-.2 7.6-6.2 7.6-20.9-.1-41.7-1.4-62.5-2.8-11.8-.8-23.6-.8-35.4-1.6-15.7-1.1-31.4-1.1-47-2.8-3.1-.4-4.5-1.9-3.8-4.9 2.2-9.3 4-18.8 7.4-27.8h5.4c-.5 2-1.1 4-1.6 6.1-1.1 4.4-2.7 8.7-3.2 13.2-.2 1.4-.3 3 1.5 3.5 2 .5 2.8-1 3.2-2.5l6-20.4c4.1 0 8.2.2 12.2-.1 5.7-.4 7.8-2.7 9.1-8.3 1.4-6.4-1.9-14.1-.6-20.3"></path><path fill="#030303" d="M589.1 214.1c-1.3 5.6-3.5 7.9-9.1 8.3-4.1.3-8.1.1-12.2.1-2-.2-3.9-.2-5.9.2h-5.4c-12.2-.8-24.3-1.6-36.5-2.4-6.7-.4-8.9-2.4-8.8-9.1.1-10.4.5-20.8.8-31.3 0-.9.3-1.8.6-2.7.4-1.4 1.4-2.2 2.9-1.9 1.4.2 1.9 1.3 2 2.5.1.7 0 1.4-.1 2.1-.4 10.1-.8 20.1-1 30.2-.1 4.5.4 4.9 4.9 5.2 12.4.9 24.7 2.2 37.2 1.6l20.3.3c3.1 0 5-1.3 5.4-4.7.8-6.5 1.3-13 1.1-19.6.1-8.5.8-17.1.2-25.6-.2-3.1-1.6-4.8-4.7-5-3-.2-6.1-.6-9.1-.6-17.5-.4-34.9-.7-52.4-1-.8 0-1.6 0-2.5-.1-.9-.1-1.5-.6-1.7-1.5-.2-1.1.3-1.8 1.2-2.3 1.2-.7 2.5-.6 3.8-.6 19.2.2 38.5.5 57.7.8h.7c8.8.6 12 3.6 12.2 12.5.2 7.5 0 15 0 22.5 0 1-.2 15.9-1.6 22.1"></path><path fill="#030303" stroke="#000000" d="M537.3 187.5c1.2-.1 2.3-.1 3.5-.2 1 0 1.5-.4 1.3-1.5-.9-3.6-1.5-7.3-3-10.8-.8-1.8-1.9-1.9-3.1-.3-1.6 2.1-2 4.7-2.9 7.1-1.9 5.6-1.6 6 4.2 5.7m-3.9 3.2c-1-.1-2-.1-2.6.7-1.5 1.9-2.2 4.6-2.8 7.1-.3 1.4-.6 1.5 1.5 1.7 1.2.1 1.9.6 1.7 1.8-.2 1.4-1.4 1.4-2.5 1.3-1.2 0-2.3-.1-3.5-.3-1.1-.2-2.5-.3-2.9-1.6-.4-1.2 1-1.9 2.1-2 .3 0 .5-.3.5-.5.1-.6.3-1.7.5-2.4 2.1-6.7 3.5-13.6 6.2-20.1 1.1-2.8 2.3-6.3 6-6 3.6.2 4.5 3.7 5.4 6.6 2.1 6.5 5.5 23.3 5.7 23.4.5.2 2 0 2.2.6.2.6.4 1.9-.2 2.1-.5.3-5 .4-6.4.3-1.2-.1-1.5-.5-1.5-1 0-.6 0-1.8.4-1.8.8-.1 2.3-.3 2.4-.4.3-.8-1.2-5.5-1.4-6.3-.1-.5-.5-1.6-.7-2-.5-.8-1.5-.7-2.4-.7-1.9 0-6.9-.4-7.7-.5"></path><path fill="#36F2B9" d="M492.9 163.8c.7.2 1.4.3 2.1.3 2.6 0 4.2-.4 4.5-3.6.2-2.6-1.7-4.7-4.5-4.6-2.4.1-5.1.1-5.3 3.6-.2 2.5 1.1 3.7 3.2 4.3m2.1-13.1c5 0 9.3 4.7 9.2 10-.1 4.7-4 7.6-10.3 7.6-5.1 0-9.2-4-9.3-9 0-4.8 4.5-8.6 10.4-8.6"></path><path fill="#030303" stroke="#000000" d="M561.1 200.8c4 0 6.1-1.9 6.2-4.9 0-1.1-.1-1.7-1.5-1.7-3.2 0-7.2 2.5-7.1 4.6.2 1.6 1.4 2 2.4 2m11.5.9c.9.3 1.3 1.1.7 1.9-1.1 1.3-2.7 1.4-3.8.5-1.9-1.6-7.2.1-8 .2-2.6.2-4.6-.8-5.9-3.1-1.3-2.5-.3-4.5 1.4-6.4 2.1-2.4 4.9-3.1 7.9-3.3 1.2-.1 2.9.5 2.9-1.5.1-1.8 1-3.9-.8-5.3-1.3-1-2.9-1-4.3-.1-1.3.8-2.5 1.8-3.3 3.1-.5.8-1.1 1.7-2.2 1.1-1.1-.5-.9-1.5-.6-2.5.9-3.4 5.5-6.3 9.1-5.8 4.4.6 6.1 2.8 5.8 7.6-.1 2.7-2.1 12.4 1.1 13.6"></path></g></svg>